<?xml version="1.0" encoding="UTF-8"?>
<svg width="59" height="59" jetway-hooks="{}" version="1.1" viewBox="0 0 59 59" xml:space="preserve" xmlns="http://www.w3.org/2000/svg" xmlns:cc="http://creativecommons.org/ns#" xmlns:dc="http://purl.org/dc/elements/1.1/" xmlns:rdf="http://www.w3.org/1999/02/22-rdf-syntax-ns#"><title>Icon</title><g jetway-hook-id="D32A0C4D-4437-47B2-A852-7B39F943D3F1"><g fill="none" fill-rule="evenodd" jetway-hook-id="647A0BE8-6A54-4FD3-92E7-3C0C54A07C51"><g jetway-hook-id="4B4991DA-B6A7-4A61-B064-B6BCDC859944"><g jetway-hook-id="F7C64F54-09B8-4D6D-9454-F58219AA5601"><g jetway-hook-id="45B02426-3A5F-49AF-8232-3C1F09D29D37"><path d="M-3-3h64v64H-3z" jetway-hook-id="68097562-43CD-4175-BD0F-8131708A2434"/><g fill-rule="nonzero" jetway-hook-id="DD923623-943A-45E3-8DE8-A4A4B8A7C198"><path d="M14.75 13.41c8.146 0 14.75 6.603 14.75 14.75v1.34H1.34C.6 29.5 0 28.9 0 28.16c0-8.147 6.604-14.75 14.75-14.75z" fill="#FBBC04" jetway-hook-id="B4287B30-9B3D-4F6B-9C01-2A7C2CA23D6F"/><path d="M45.59 14.75c0 8.146-6.603 14.75-14.75 14.75H29.5V1.34C29.5.6 30.1 0 30.84 0c8.147 0 14.75 6.604 14.75 14.75z" fill="#EA4335" jetway-hook-id="5872DD7E-5971-4393-9299-364708D669BC"/><path d="M44.25 45.59c-8.146 0-14.75-6.603-14.75-14.75V29.5h28.16c.74 0 1.34.6 1.34 1.34 0 8.147-6.604 14.75-14.75 14.75z" fill="#4285F4" jetway-hook-id="184B2279-6FFE-4CA2-B961-54092B122EB8"/><path d="M13.41 44.25c0-8.146 6.603-14.75 14.75-14.75h1.34v28.16c0 .74-.6 1.34-1.34 1.34-8.147 0-14.75-6.604-14.75-14.75z" fill="#34A853" jetway-hook-id="2AD9C930-A41C-474E-9152-1E50FC2C457C"/></g></g></g></g></g></g><g transform="matrix(.029297 0 0 .029297 30.535 29)"><path d="m364.99 703.54 375.67 7.0935 29.511 106.11 63.063 95.268 60.381 59.022h-416.26l-130.35-176.6z" fill="#178e3b"/><path d="m482.45 851.47a12.927 12.927 0 0 1-8.8113-3.4603c-51.582-47.776-44.365-141.55-44.032-145.52a12.978 12.978 0 0 1 25.865 2.1626c-0.11122 1.4088-6.3026 85.271 35.838 124.31a12.976 12.976 0 0 1-8.8607 22.504zm136.02-24.58a12.939 12.939 0 0 1-9.6887-4.3377c-44.489-49.951-35.332-109.99-34.924-112.46a12.976 12.976 0 0 1 25.618 4.14c-0.11122 0.75384-7.316 50.668 28.671 91.054a12.976 12.976 0 0 1-9.6764 21.614z" fill="#2fa65b"/><path d="m958.11 1024h-0.32131l-123.2-1.483a25.952 25.952 0 0 1-15.954-5.7341l-34.158-27.509-2.0638 11.122a25.952 25.952 0 0 1-25.828 21.219l-88.891-1.1123a25.952 25.952 0 0 1-15.979-5.7464l-40.312-32.502-5.6723 18.747a25.952 25.952 0 0 1-25.272 18.45l-73.951-1.2358a25.952 25.952 0 0 1-12.111-3.2254c-77.386-42.685-131.87-111.96-157.55-200.34-19.204-66.103-15.608-119.64-15.448-121.89a25.952 25.952 0 0 1 25.89-24.073h410.88a25.952 25.952 0 0 1 25.952 25.952c0 179.8 184.3 279.45 186.16 280.44a25.952 25.952 0 0 1-12.173 48.913zm-113.89-53.276 30.438 0.37074a495.86 495.86 0 0 1-35.072-32.526c-30.895-31.637-55.611-65.831-73.419-101.61a319.42 319.42 0 0 1-32.885-116.33h-359.93a352.71 352.71 0 0 0 13.816 81.279c21.676 73.036 64.262 128.33 126.79 164.55l47.739 0.77856 11.122-36.864a25.952 25.952 0 0 1 41.14-12.704l63.323 51.051 58.083 0.7044 6.006-32.341a25.952 25.952 0 0 1 41.783-15.485z" fill="#203529"/><path d="m534.23 807.41a12.951 12.951 0 0 1-10.134-4.8691c-28.658-35.777-20.304-91.561-19.934-93.921a12.977 12.977 0 0 1 25.643 4.004c-0.0742 0.51904-6.8834 46.961 14.545 73.691a12.976 12.976 0 0 1-10.121 21.095zm151.51 0a12.951 12.951 0 0 1-10.134-4.8691c-28.658-35.777-20.304-91.561-19.934-93.921a12.976 12.976 0 0 1 25.618 4.004c-0.0989 0.6179-6.8587 46.961 14.545 73.691a12.976 12.976 0 0 1-10.121 21.083z" fill="#2fa65b"/><g fill="#203529"><path d="m758.17 720.63h-410.37a25.952 25.952 0 0 1-25.952-25.952v-77.139a25.952 25.952 0 0 1 25.952-25.952h410.37a25.952 25.952 0 0 1 25.952 25.952v77.139a25.952 25.952 0 0 1-25.952 25.952zm-384.42-51.904h358.47v-25.235h-358.47z"/><path d="m631.86 639.02a25.952 25.952 0 0 1-25.952-25.952 53.912 53.912 0 1 0-107.82 0 25.952 25.952 0 1 1-51.904 0 105.82 105.82 0 1 1 211.63 0 25.952 25.952 0 0 1-25.952 25.952z"/><path d="m605.82 572.18a25.952 25.952 0 0 1-25.952-25.952l1.0257-466.4a27.917 27.917 0 0 0-55.834 0l-1.0257 466.4a25.952 25.952 0 0 1-25.952 25.952 25.952 25.952 0 0 1-25.952-25.952l1.0257-466.4a79.821 79.821 0 0 1 159.64 0l-1.0257 466.4a25.952 25.952 0 0 1-25.952 25.952z"/><path d="m552.98 98.765m-14.088 0a14.088 14.088 0 1 0 28.176 0 14.088 14.088 0 1 0-28.176 0z"/><path d="m320.33 1019.8h-254.46a25.952 25.952 0 0 1-25.952-25.952 153.24 153.24 0 1 1 306.37 0 25.952 25.952 0 0 1-25.952 25.952zm-225.15-51.904h195.84a101.34 101.34 0 0 0-195.83 0zm142.46-183.89a12.964 12.964 0 0 1-4.1523-0.6797 220.41 220.41 0 0 1-100.25-68.773c-21.281-25.544-38.31-56.773-50.446-92.809-20.576-60.839-20.453-114.04-20.44-116.28a12.976 12.976 0 0 1 12.976-12.889h0.08651a12.976 12.976 0 0 1 12.889 13.05c0 0.50668 0 51.694 19.316 108.48 25.383 74.482 70.515 123.14 134.16 144.59a12.976 12.976 0 0 1-4.14 25.309zm21.478-166.46a12.914 12.914 0 0 1-6.6733-1.8537c-80.883-48.592-70.886-166.57-70.441-171.58a12.976 12.976 0 0 1 25.841 2.3851c-0.0989 1.0628-8.8731 106.8 57.947 146.94a12.976 12.976 0 0 1-6.6981 24.098zm-65.807-239.94a12.976 12.976 0 0 1-12.976-12.865c0-1.9031-0.11122-46.961 26.595-81.402a12.976 12.976 0 0 1 20.514 15.892c-21.243 27.422-21.157 64.904-21.157 65.288a12.976 12.976 0 0 1-12.865 13.087z"/></g></g><metadata><rdf:RDF><cc:Work rdf:about=""><dc:title>Icon</dc:title></cc:Work></rdf:RDF></metadata></svg>
